<svg xmlns="http://www.w3.org/2000/svg" width="960" height="500" viewBox="0 0 960 500" role="img" aria-label="用运行脚本组织一次计算"><title>用运行脚本组织一次计算</title><defs><marker id="a-ink" viewBox="0 0 10 10" refX="8.5" refY="5" markerWidth="7" markerHeight="7" orient="auto-start-reverse"><path d="M1 1.2 9 5 1 8.8 2.8 5z" fill="#22302c"/></marker><marker id="a-green" viewBox="0 0 10 10" refX="8.5" refY="5" markerWidth="7" markerHeight="7" orient="auto-start-reverse"><path d="M1 1.2 9 5 1 8.8 2.8 5z" fill="#2c6e5a"/></marker><marker id="a-teal" viewBox="0 0 10 10" refX="8.5" refY="5" markerWidth="7" markerHeight="7" orient="auto-start-reverse"><path d="M1 1.2 9 5 1 8.8 2.8 5z" fill="#2f8a86"/></marker><marker id="a-muted" viewBox="0 0 10 10" refX="8.5" refY="5" markerWidth="7" markerHeight="7" orient="auto-start-reverse"><path d="M1 1.2 9 5 1 8.8 2.8 5z" fill="#66756f"/></marker><marker id="a-amber" viewBox="0 0 10 10" refX="8.5" refY="5" markerWidth="7" markerHeight="7" orient="auto-start-reverse"><path d="M1 1.2 9 5 1 8.8 2.8 5z" fill="#c98a2b"/></marker><marker id="a-red" viewBox="0 0 10 10" refX="8.5" refY="5" markerWidth="7" markerHeight="7" orient="auto-start-reverse"><path d="M1 1.2 9 5 1 8.8 2.8 5z" fill="#c8553d"/></marker><marker id="a-blue" viewBox="0 0 10 10" refX="8.5" refY="5" markerWidth="7" markerHeight="7" orient="auto-start-reverse"><path d="M1 1.2 9 5 1 8.8 2.8 5z" fill="#3b78b5"/></marker><pattern id="hatch" width="8" height="8" patternUnits="userSpaceOnUse" patternTransform="rotate(45)"><path d="M0 0v8" stroke="#66756f" stroke-width="1.6"/></pattern></defs><style>text{font-family:'Noto Sans SC','PingFang SC','Microsoft YaHei','Source Han Sans SC',sans-serif;fill:#22302c}.t{font-size:19px}.tb{font-size:19px;font-weight:700}.s{font-size:16px;fill:#66756f}
.h{font-size:25px;font-weight:700}.k{font-size:13px;fill:#2c6e5a;font-weight:700;letter-spacing:.12em}.m{font-family:'Cascadia Code','JetBrains Mono',Consolas,'DejaVu Sans Mono',monospace;font-size:16px}.mb{font-family:'Cascadia Code','JetBrains Mono',Consolas,'DejaVu Sans Mono',monospace;font-size:17px;font-weight:700}
.tag{font-size:12px;fill:#9aa59f}.c{text-anchor:middle}.e{text-anchor:end}.w{fill:#fff}</style><rect x="1" y="1" width="958" height="498" rx="20" fill="#fbfaf6" stroke="#d9ddd3" stroke-width="1.5"/><text x="36.0" y="54.0" class="h">用运行脚本组织一次计算</text><rect x="40.0" y="116.0" width="199.0" height="94.0" rx="12" fill="#ffffff" stroke="#d9ddd3" stroke-width="1.5"/><rect x="40.0" y="130.0" width="4" height="66.0" rx="2" fill="#2c6e5a"/><text x="62.0" y="159.0" class="tb">恢复初场</text><text x="62.0" y="185.0" class="s">restore0Dir</text><line x1="243.0" y1="163.0" x2="262.0" y2="163.0" stroke="#2c6e5a" stroke-width="2" stroke-linecap="round" marker-end="url(#a-green)"/><rect x="267.0" y="116.0" width="199.0" height="94.0" rx="12" fill="#ffffff" stroke="#d9ddd3" stroke-width="1.5"/><rect x="267.0" y="130.0" width="4" height="66.0" rx="2" fill="#2c6e5a"/><text x="289.0" y="159.0" class="tb">生成网格</text><text x="289.0" y="185.0" class="s">blockMesh</text><line x1="470.0" y1="163.0" x2="489.0" y2="163.0" stroke="#2c6e5a" stroke-width="2" stroke-linecap="round" marker-end="url(#a-green)"/><rect x="494.0" y="116.0" width="199.0" height="94.0" rx="12" fill="#ffffff" stroke="#d9ddd3" stroke-width="1.5"/><rect x="494.0" y="130.0" width="4" height="66.0" rx="2" fill="#2c6e5a"/><text x="516.0" y="159.0" class="tb">设置初值</text><text x="516.0" y="185.0" class="s">setFields</text><line x1="697.0" y1="163.0" x2="716.0" y2="163.0" stroke="#2c6e5a" stroke-width="2" stroke-linecap="round" marker-end="url(#a-green)"/><rect x="721.0" y="116.0" width="199.0" height="94.0" rx="12" fill="#ffffff" stroke="#d9ddd3" stroke-width="1.5"/><rect x="721.0" y="130.0" width="4" height="66.0" rx="2" fill="#2c6e5a"/><text x="743.0" y="159.0" class="tb">运行求解器</text><text x="743.0" y="185.0" class="s">getApplication</text><rect x="80.0" y="284.0" width="800.0" height="132.0" rx="12" fill="#e4efe8" stroke="#9cc5b1" stroke-width="1.5"/><text x="108.0" y="320.0" class="tb">Allrun：固定顺序，集中记录</text><text x="108.0" y="352.0" class="m">runApplication → log.blockMesh / log.setFields / log.&lt;solver&gt;</text><text x="108.0" y="385.0" class="s">再次计算前确认旧日志与时间目录；Allclean 负责清理计算产物。</text><line x1="480.0" y1="216.0" x2="480.0" y2="278.0" stroke="#2c6e5a" stroke-width="2" stroke-linecap="round" marker-end="url(#a-green)"/><text x="932.0" y="480.0" class="tag" text-anchor="end">FoamLab 示意图</text></svg>