<svg xmlns="http://www.w3.org/2000/svg" width="960" height="500" viewBox="0 0 960 500" role="img" aria-label="压力–速度耦合：预测、校正、再预测"><title>压力–速度耦合：预测、校正、再预测</title><defs><marker id="a-ink" viewBox="0 0 10 10" refX="8.5" refY="5" markerWidth="7" markerHeight="7" orient="auto-start-reverse"><path d="M1 1.2 9 5 1 8.8 2.8 5z" fill="#22302c"/></marker><marker id="a-green" viewBox="0 0 10 10" refX="8.5" refY="5" markerWidth="7" markerHeight="7" orient="auto-start-reverse"><path d="M1 1.2 9 5 1 8.8 2.8 5z" fill="#2c6e5a"/></marker><marker id="a-teal" viewBox="0 0 10 10" refX="8.5" refY="5" markerWidth="7" markerHeight="7" orient="auto-start-reverse"><path d="M1 1.2 9 5 1 8.8 2.8 5z" fill="#2f8a86"/></marker><marker id="a-muted" viewBox="0 0 10 10" refX="8.5" refY="5" markerWidth="7" markerHeight="7" orient="auto-start-reverse"><path d="M1 1.2 9 5 1 8.8 2.8 5z" fill="#66756f"/></marker><marker id="a-amber" viewBox="0 0 10 10" refX="8.5" refY="5" markerWidth="7" markerHeight="7" orient="auto-start-reverse"><path d="M1 1.2 9 5 1 8.8 2.8 5z" fill="#c98a2b"/></marker><marker id="a-red" viewBox="0 0 10 10" refX="8.5" refY="5" markerWidth="7" markerHeight="7" orient="auto-start-reverse"><path d="M1 1.2 9 5 1 8.8 2.8 5z" fill="#c8553d"/></marker><marker id="a-blue" viewBox="0 0 10 10" refX="8.5" refY="5" markerWidth="7" markerHeight="7" orient="auto-start-reverse"><path d="M1 1.2 9 5 1 8.8 2.8 5z" fill="#3b78b5"/></marker><pattern id="hatch" width="8" height="8" patternUnits="userSpaceOnUse" patternTransform="rotate(45)"><path d="M0 0v8" stroke="#66756f" stroke-width="1.6"/></pattern></defs><style>text{font-family:'Noto Sans SC','PingFang SC','Microsoft YaHei','Source Han Sans SC',sans-serif;fill:#22302c}.t{font-size:19px}.tb{font-size:19px;font-weight:700}.s{font-size:16px;fill:#66756f}
.h{font-size:25px;font-weight:700}.k{font-size:13px;fill:#2c6e5a;font-weight:700;letter-spacing:.12em}.m{font-family:'Cascadia Code','JetBrains Mono',Consolas,'DejaVu Sans Mono',monospace;font-size:16px}.mb{font-family:'Cascadia Code','JetBrains Mono',Consolas,'DejaVu Sans Mono',monospace;font-size:17px;font-weight:700}
.tag{font-size:12px;fill:#9aa59f}.c{text-anchor:middle}.e{text-anchor:end}.w{fill:#fff}</style><rect x="1" y="1" width="958" height="498" rx="20" fill="#fbfaf6" stroke="#d9ddd3" stroke-width="1.5"/><text x="36.0" y="54.0" class="h">压力–速度耦合：预测、校正、再预测</text><rect x="90.0" y="150.0" width="230.0" height="96.0" rx="12" fill="#ffffff" stroke="#d9ddd3" stroke-width="1.5"/><rect x="90.0" y="164.0" width="4" height="68.0" rx="2" fill="#c98a2b"/><text x="112.0" y="194.0" class="tb">动量预测</text><text x="112.0" y="220.0" class="s">用当前压力求 U*</text><rect x="370.0" y="150.0" width="230.0" height="96.0" rx="12" fill="#ffffff" stroke="#d9ddd3" stroke-width="1.5"/><rect x="370.0" y="164.0" width="4" height="68.0" rx="2" fill="#2c6e5a"/><text x="392.0" y="194.0" class="tb">压力方程</text><text x="392.0" y="220.0" class="s">由连续性 ∇·U = 0 导出</text><rect x="650.0" y="150.0" width="230.0" height="96.0" rx="12" fill="#ffffff" stroke="#d9ddd3" stroke-width="1.5"/><rect x="650.0" y="164.0" width="4" height="68.0" rx="2" fill="#2f8a86"/><text x="672.0" y="194.0" class="tb">修正</text><text x="672.0" y="220.0" class="s">更新通量 φ、速度 U</text><line x1="324.0" y1="198.0" x2="364.0" y2="198.0" stroke="#22302c" stroke-width="2" stroke-linecap="round" marker-end="url(#a-ink)"/><line x1="604.0" y1="198.0" x2="644.0" y2="198.0" stroke="#22302c" stroke-width="2" stroke-linecap="round" marker-end="url(#a-ink)"/><path d="M765 250 V300 H485 V256" fill="none" stroke="#2c6e5a" stroke-width="2" stroke-linecap="round" stroke-linejoin="round" stroke-dasharray="6 5" marker-end="url(#a-green)"/><text x="625.0" y="290.0" class="s" text-anchor="middle" style="font-size:14px">PISO：时间步内多次压力校正</text><path d="M765 250 V340 H205 V256" fill="none" stroke="#c98a2b" stroke-width="2" stroke-linecap="round" stroke-linejoin="round" marker-end="url(#a-amber)"/><text x="485.0" y="362.0" class="s" text-anchor="middle" style="font-size:14px">外迭代：回到动量方程</text><text x="110.0" y="418.0" class="mb" style="fill:#c98a2b;">SIMPLE</text><text x="110.0" y="444.0" class="s" style="font-size:13.5px">稳态；外迭代 + 松弛</text><text x="380.0" y="418.0" class="mb" style="fill:#2c6e5a;">PISO</text><text x="380.0" y="444.0" class="s" style="font-size:13.5px">瞬态；小时间步内的压力校正</text><text x="650.0" y="418.0" class="mb" style="fill:#2f8a86;">PIMPLE</text><text x="650.0" y="444.0" class="s" style="font-size:13.5px">瞬态；PISO 外面再套外迭代，可用大时间步</text><text x="932.0" y="480.0" class="tag" text-anchor="end">FoamLab 示意图</text></svg>