<svg xmlns="http://www.w3.org/2000/svg" width="960" height="500" viewBox="0 0 960 500" role="img" aria-label="对流离散：数值扩散与振荡"><title>对流离散：数值扩散与振荡</title><defs><marker id="a-ink" viewBox="0 0 10 10" refX="8.5" refY="5" markerWidth="7" markerHeight="7" orient="auto-start-reverse"><path d="M1 1.2 9 5 1 8.8 2.8 5z" fill="#22302c"/></marker><marker id="a-green" viewBox="0 0 10 10" refX="8.5" refY="5" markerWidth="7" markerHeight="7" orient="auto-start-reverse"><path d="M1 1.2 9 5 1 8.8 2.8 5z" fill="#2c6e5a"/></marker><marker id="a-teal" viewBox="0 0 10 10" refX="8.5" refY="5" markerWidth="7" markerHeight="7" orient="auto-start-reverse"><path d="M1 1.2 9 5 1 8.8 2.8 5z" fill="#2f8a86"/></marker><marker id="a-muted" viewBox="0 0 10 10" refX="8.5" refY="5" markerWidth="7" markerHeight="7" orient="auto-start-reverse"><path d="M1 1.2 9 5 1 8.8 2.8 5z" fill="#66756f"/></marker><marker id="a-amber" viewBox="0 0 10 10" refX="8.5" refY="5" markerWidth="7" markerHeight="7" orient="auto-start-reverse"><path d="M1 1.2 9 5 1 8.8 2.8 5z" fill="#c98a2b"/></marker><marker id="a-red" viewBox="0 0 10 10" refX="8.5" refY="5" markerWidth="7" markerHeight="7" orient="auto-start-reverse"><path d="M1 1.2 9 5 1 8.8 2.8 5z" fill="#c8553d"/></marker><marker id="a-blue" viewBox="0 0 10 10" refX="8.5" refY="5" markerWidth="7" markerHeight="7" orient="auto-start-reverse"><path d="M1 1.2 9 5 1 8.8 2.8 5z" fill="#3b78b5"/></marker><pattern id="hatch" width="8" height="8" patternUnits="userSpaceOnUse" patternTransform="rotate(45)"><path d="M0 0v8" stroke="#66756f" stroke-width="1.6"/></pattern></defs><style>text{font-family:'Noto Sans SC','PingFang SC','Microsoft YaHei','Source Han Sans SC',sans-serif;fill:#22302c}.t{font-size:19px}.tb{font-size:19px;font-weight:700}.s{font-size:16px;fill:#66756f}
.h{font-size:25px;font-weight:700}.k{font-size:13px;fill:#2c6e5a;font-weight:700;letter-spacing:.12em}.m{font-family:'Cascadia Code','JetBrains Mono',Consolas,'DejaVu Sans Mono',monospace;font-size:16px}.mb{font-family:'Cascadia Code','JetBrains Mono',Consolas,'DejaVu Sans Mono',monospace;font-size:17px;font-weight:700}
.tag{font-size:12px;fill:#9aa59f}.c{text-anchor:middle}.e{text-anchor:end}.w{fill:#fff}</style><rect x="1" y="1" width="958" height="498" rx="20" fill="#fbfaf6" stroke="#d9ddd3" stroke-width="1.5"/><text x="36.0" y="54.0" class="h">对流离散：数值扩散与振荡</text><line x1="90.0" y1="330.0" x2="880.0" y2="330.0" stroke="#22302c" stroke-width="2" stroke-linecap="round" marker-end="url(#a-ink)"/><line x1="90.0" y1="330.0" x2="90.0" y2="90.0" stroke="#22302c" stroke-width="2" stroke-linecap="round" marker-end="url(#a-ink)"/><text x="884.0" y="336.0" class="t">x</text><text x="80.0" y="82.0" class="tb">φ</text><path d="M90 320 H350 V140 H610 V320 H870" fill="none" stroke="#22302c" stroke-width="2.5" stroke-linecap="round" stroke-linejoin="round" stroke-dasharray="7 6"/><path d="M90 320 C280 320 310 200 390 170 S540 160 590 200 S690 320 870 320" fill="none" stroke="#3b78b5" stroke-width="3.5" stroke-linecap="round" stroke-linejoin="round"/><path d="M90 320 H310 Q335 348 348 320 L352 140 Q370 106 392 140 H570 Q595 110 608 140 L612 320 Q630 350 650 320 H870" fill="none" stroke="#c8553d" stroke-width="2.6" stroke-linecap="round" stroke-linejoin="round"/><line x1="110.0" y1="420.0" x2="110.0" y2="420.0" stroke="#22302c" stroke-width="0" stroke-linecap="round"/><line x1="110.0" y1="420.0" x2="110.0" y2="420.0" stroke="#3b78b5" stroke-width="0" stroke-linecap="round"/><line x1="110.0" y1="420.0" x2="110.0" y2="420.0" stroke="#c8553d" stroke-width="0" stroke-linecap="round"/><line x1="110.0" y1="372.0" x2="150.0" y2="372.0" stroke="#22302c" stroke-width="3" stroke-linecap="round" stroke-dasharray="7 6"/><text x="162.0" y="378.0" class="s" style="font-size:15px">参考解（间断）</text><line x1="110.0" y1="400.0" x2="150.0" y2="400.0" stroke="#3b78b5" stroke-width="3" stroke-linecap="round"/><text x="162.0" y="406.0" class="s" style="font-size:15px">一阶迎风：抹平间断（数值扩散）</text><line x1="110.0" y1="428.0" x2="150.0" y2="428.0" stroke="#c8553d" stroke-width="3" stroke-linecap="round"/><text x="162.0" y="434.0" class="s" style="font-size:15px">中心格式：间断附近振荡（过冲 / 欠冲）</text><text x="900.0" y="462.0" class="s" text-anchor="end">有界的限制器格式（limitedLinear、vanLeer）在两者之间折中</text><text x="932.0" y="480.0" class="tag" text-anchor="end">FoamLab 示意图</text></svg>