<svg xmlns="http://www.w3.org/2000/svg" width="1080" height="560" viewBox="0 0 1080 560">
<rect width="1080" height="560" rx="24" fill="#f5f4eb"/>
<svg x="0" y="75" width="710" height="400" viewBox="0 0 960 540"><defs><marker id="head" markerWidth="8" markerHeight="8" refX="7" refY="3" orient="auto"><path d="M0 0L7 3L0 6" fill="none" stroke="#bf6946" stroke-width="1.5"/></marker></defs><text x="480" y="65" text-anchor="middle" font-family="Microsoft YaHei,sans-serif" font-size="24" fill="#294f49">封闭刚性盒：均匀供能</text><rect x="180" y="135" width="600" height="270" rx="8" fill="#efc994" stroke="#294f49" stroke-width="7"/><path d="M260 190L260 250" stroke="#bf6946" stroke-width="4" marker-end="url(#head)"/><text x="260" y="290" text-anchor="middle" font-family="Microsoft YaHei,sans-serif" font-size="22" fill="#294f49">热源</text><path d="M480 190L480 250" stroke="#bf6946" stroke-width="4" marker-end="url(#head)"/><text x="480" y="290" text-anchor="middle" font-family="Microsoft YaHei,sans-serif" font-size="22" fill="#294f49">热源</text><path d="M700 190L700 250" stroke="#bf6946" stroke-width="4" marker-end="url(#head)"/><text x="700" y="290" text-anchor="middle" font-family="Microsoft YaHei,sans-serif" font-size="22" fill="#294f49">热源</text><text x="480" y="350" text-anchor="middle" font-family="Microsoft YaHei,sans-serif" font-size="24" fill="#294f49">总能量增加 → 温度与压力升高</text><text x="480" y="458" text-anchor="middle" font-family="Microsoft YaHei,sans-serif" font-size="24" fill="#294f49">供能 0.011 s，输入 1100 J</text></svg>
<rect x="722" y="105" width="334" height="362" rx="18" fill="#fffef9" stroke="#c7d7cb"/>
<text x="40" y="49" font-family="Microsoft YaHei,sans-serif" font-size="27" fill="#244b40">持续加热怎样配置</text>
<text x="746" y="149" font-family="Microsoft YaHei,sans-serif" font-size="22" fill="#244b40">本课打开的文件</text>
<text x="746" y="202" font-family="Consolas,Microsoft YaHei,sans-serif" font-size="15" fill="#31574d">constant</text>
<text x="746" y="226" font-family="Consolas,Microsoft YaHei,sans-serif" font-size="18" fill="#31574d">energySourceProperties</text>
<text x="746" y="284" font-family="Consolas,Microsoft YaHei,sans-serif" font-size="15" fill="#31574d">system</text>
<text x="746" y="308" font-family="Consolas,Microsoft YaHei,sans-serif" font-size="18" fill="#31574d">controlDict</text>
</svg>