<svg xmlns="http://www.w3.org/2000/svg" width="1080" height="560" viewBox="0 0 1080 560">
<rect width="1080" height="560" rx="24" fill="#f5f4eb"/>
<svg x="0" y="75" width="710" height="400" viewBox="0 0 960 540">
<defs><linearGradient id="water" x2="0" y2="1"><stop stop-color="#b8dee7"/><stop offset="1" stop-color="#73b3c7"/></linearGradient><linearGradient id="thermal"><stop stop-color="#dc8361"/><stop offset="1" stop-color="#83bdd0"/></linearGradient><marker id="arrow" markerWidth="9" markerHeight="9" refX="7" refY="3" orient="auto" markerUnits="strokeWidth"><path d="M0 0 L7 3 L0 6" fill="none" stroke="context-stroke" stroke-width="1.5"/></marker></defs>
<rect width="960" height="540" rx="24" fill="#f5f4eb"/>
<path d="M32 450H928M32 478H928" stroke="#e5e7dd" fill="none"/>
<text x="48" y="52" font-family="Microsoft YaHei,Noto Sans CJK SC,sans-serif" font-size="22" fill="#294f49" text-anchor="start">斜面引起压缩，转弯产生斜激波</text>
<path d="M235 395L880 222.17V433H235Z" stroke="#294f49" stroke-width="4" fill="#c9cbb6" stroke-linecap="round" stroke-linejoin="round"/>
<path d="M235 395L675.00 120.06" stroke="#d17453" stroke-width="4" fill="none" stroke-linecap="round" stroke-linejoin="round"/>
<path d="M74 207 L269 207" stroke="#368bad" stroke-width="3" fill="none" marker-end="url(#arrow)"/>
<path d="M74 277 L269 277" stroke="#368bad" stroke-width="3" fill="none" marker-end="url(#arrow)"/>
<path d="M74 347 L269 347" stroke="#368bad" stroke-width="3" fill="none" marker-end="url(#arrow)"/>
<path d="M454 327 L613 284.3960784034515" stroke="#368bad" stroke-width="4" fill="none" marker-end="url(#arrow)"/>
<path d="M605 288 L764 245.3960784034515" stroke="#368bad" stroke-width="4" fill="none" marker-end="url(#arrow)"/>
<text x="659" y="123" font-family="Microsoft YaHei,Noto Sans CJK SC,sans-serif" font-size="23" fill="#d17453" text-anchor="start">斜激波</text>
<text x="636" y="467" font-family="Microsoft YaHei,Noto Sans CJK SC,sans-serif" font-size="22" fill="#294f49" text-anchor="start">气流转向与壁面平行</text>
<text x="140" y="137" font-family="Microsoft YaHei,Noto Sans CJK SC,sans-serif" font-size="23" fill="#294f49" text-anchor="start">来流</text>
<text x="310" y="499" font-family="Microsoft YaHei,Noto Sans CJK SC,sans-serif" font-size="21" fill="#294f49" text-anchor="start">示意图：激波角大于斜面角</text>
</svg>
<rect x="722" y="105" width="334" height="362" rx="18" fill="#fffef9" stroke="#c7d7cb"/>
<text x="40" y="49" font-family="Microsoft YaHei,sans-serif" font-size="27" fill="#244b40">斜激波怎样搭建</text>
<text x="746" y="149" font-family="Microsoft YaHei,sans-serif" font-size="22" fill="#244b40">本课打开的文件</text>
<text x="746" y="202" font-family="Consolas,Microsoft YaHei,sans-serif" font-size="15" fill="#31574d">0.orig</text>
<text x="746" y="226" font-family="Consolas,Microsoft YaHei,sans-serif" font-size="18" fill="#31574d">U</text>
<text x="746" y="284" font-family="Consolas,Microsoft YaHei,sans-serif" font-size="15" fill="#31574d">0.orig</text>
<text x="746" y="308" font-family="Consolas,Microsoft YaHei,sans-serif" font-size="18" fill="#31574d">p</text>
</svg>