<svg xmlns="http://www.w3.org/2000/svg" width="960" height="540" viewBox="0 0 960 540">
<defs><linearGradient id="water" x2="0" y2="1"><stop stop-color="#b8dee7"/><stop offset="1" stop-color="#73b3c7"/></linearGradient><linearGradient id="thermal"><stop stop-color="#dc8361"/><stop offset="1" stop-color="#83bdd0"/></linearGradient><marker id="arrow" markerWidth="9" markerHeight="9" refX="7" refY="3" orient="auto" markerUnits="strokeWidth"><path d="M0 0 L7 3 L0 6" fill="none" stroke="context-stroke" stroke-width="1.5"/></marker></defs>
<rect width="960" height="540" rx="24" fill="#f5f4eb"/>
<path d="M32 450H928M32 478H928" stroke="#e5e7dd" fill="none"/>
<text x="48" y="52" font-family="Microsoft YaHei,Noto Sans CJK SC,sans-serif" font-size="22" fill="#294f49" text-anchor="start">气体穿过正激波</text>
<rect x="110" y="182" width="731" height="199" rx="0" fill="#deedf0" stroke="#294f49" stroke-width="3"/>
<rect x="479" y="183" width="15" height="197" rx="0" fill="#d17453" stroke="#d17453" stroke-width="3"/>
<path d="M151 228 L426 228" stroke="#368bad" stroke-width="4" fill="none" marker-end="url(#arrow)"/>
<path d="M541 228 L658 228" stroke="#368bad" stroke-width="4" fill="none" marker-end="url(#arrow)"/>
<path d="M151 282 L426 282" stroke="#368bad" stroke-width="4" fill="none" marker-end="url(#arrow)"/>
<path d="M541 282 L658 282" stroke="#368bad" stroke-width="4" fill="none" marker-end="url(#arrow)"/>
<path d="M151 337 L426 337" stroke="#368bad" stroke-width="4" fill="none" marker-end="url(#arrow)"/>
<path d="M541 337 L658 337" stroke="#368bad" stroke-width="4" fill="none" marker-end="url(#arrow)"/>
<text x="283" y="130" font-family="Microsoft YaHei,Noto Sans CJK SC,sans-serif" font-size="23" fill="#294f49" text-anchor="middle">上游：超声速</text>
<text x="663" y="130" font-family="Microsoft YaHei,Noto Sans CJK SC,sans-serif" font-size="23" fill="#294f49" text-anchor="middle">下游：亚声速</text>
<text x="278" y="423" font-family="Microsoft YaHei,Noto Sans CJK SC,sans-serif" font-size="21" fill="#294f49" text-anchor="middle">速度较大，压力较低</text>
<text x="665" y="423" font-family="Microsoft YaHei,Noto Sans CJK SC,sans-serif" font-size="21" fill="#294f49" text-anchor="middle">速度降低，压力升高</text>
<text x="480" y="490" font-family="Microsoft YaHei,Noto Sans CJK SC,sans-serif" font-size="22" fill="#294f49" text-anchor="middle">以激波静止的参考系观察气流</text>
</svg>