<svg xmlns="http://www.w3.org/2000/svg" width="960" height="540" viewBox="0 0 960 540">
<defs><linearGradient id="water" x2="0" y2="1"><stop stop-color="#b8dee7"/><stop offset="1" stop-color="#73b3c7"/></linearGradient><linearGradient id="thermal"><stop stop-color="#dc8361"/><stop offset="1" stop-color="#83bdd0"/></linearGradient><marker id="arrow" markerWidth="9" markerHeight="9" refX="7" refY="3" orient="auto" markerUnits="strokeWidth"><path d="M0 0 L7 3 L0 6" fill="none" stroke="context-stroke" stroke-width="1.5"/></marker></defs>
<rect width="960" height="540" rx="24" fill="#f5f4eb"/>
<path d="M32 450H928M32 478H928" stroke="#e5e7dd" fill="none"/>
<text x="48" y="52" font-family="Microsoft YaHei,Noto Sans CJK SC,sans-serif" font-size="22" fill="#294f49" text-anchor="start">热辐射在表面间传递</text>
<rect x="90" y="129" width="37" height="300" rx="3" fill="#d17453" stroke="#294f49" stroke-width="3"/>
<rect x="825" y="129" width="37" height="300" rx="3" fill="#368bad" stroke="#294f49" stroke-width="3"/>
<path d="M145 163q25 -20 50 0t50 0t50 0t50 0t50 0t50 0t50 0t50 0t50 0t50 0t50 0t50 0" stroke="#d17453" stroke-width="3" fill="none" stroke-linecap="round" stroke-linejoin="round"/>
<path d="M746 163 L803 163" stroke="#d17453" stroke-width="3" fill="none" marker-end="url(#arrow)"/>
<path d="M145 213q25 -20 50 0t50 0t50 0t50 0t50 0t50 0t50 0t50 0t50 0t50 0t50 0t50 0" stroke="#d17453" stroke-width="3" fill="none" stroke-linecap="round" stroke-linejoin="round"/>
<path d="M746 213 L803 213" stroke="#d17453" stroke-width="3" fill="none" marker-end="url(#arrow)"/>
<path d="M145 263q25 -20 50 0t50 0t50 0t50 0t50 0t50 0t50 0t50 0t50 0t50 0t50 0t50 0" stroke="#d17453" stroke-width="3" fill="none" stroke-linecap="round" stroke-linejoin="round"/>
<path d="M746 263 L803 263" stroke="#d17453" stroke-width="3" fill="none" marker-end="url(#arrow)"/>
<path d="M145 313q25 -20 50 0t50 0t50 0t50 0t50 0t50 0t50 0t50 0t50 0t50 0t50 0t50 0" stroke="#d17453" stroke-width="3" fill="none" stroke-linecap="round" stroke-linejoin="round"/>
<path d="M746 313 L803 313" stroke="#d17453" stroke-width="3" fill="none" marker-end="url(#arrow)"/>
<path d="M145 363q25 -20 50 0t50 0t50 0t50 0t50 0t50 0t50 0t50 0t50 0t50 0t50 0t50 0" stroke="#d17453" stroke-width="3" fill="none" stroke-linecap="round" stroke-linejoin="round"/>
<path d="M746 363 L803 363" stroke="#d17453" stroke-width="3" fill="none" marker-end="url(#arrow)"/>
<text x="77" y="102" font-family="Microsoft YaHei,Noto Sans CJK SC,sans-serif" font-size="22" fill="#294f49" text-anchor="start">高温表面</text>
<text x="760" y="102" font-family="Microsoft YaHei,Noto Sans CJK SC,sans-serif" font-size="22" fill="#294f49" text-anchor="start">低温表面</text>
<text x="343" y="465" font-family="Microsoft YaHei,Noto Sans CJK SC,sans-serif" font-size="23" fill="#294f49" text-anchor="start">辐射通过空间传递</text>
</svg>