<svg xmlns="http://www.w3.org/2000/svg" width="960" height="540" viewBox="0 0 960 540">
<defs><linearGradient id="water" x2="0" y2="1"><stop stop-color="#b8dee7"/><stop offset="1" stop-color="#73b3c7"/></linearGradient><linearGradient id="thermal"><stop stop-color="#dc8361"/><stop offset="1" stop-color="#83bdd0"/></linearGradient><marker id="arrow" markerWidth="9" markerHeight="9" refX="7" refY="3" orient="auto" markerUnits="strokeWidth"><path d="M0 0 L7 3 L0 6" fill="none" stroke="context-stroke" stroke-width="1.5"/></marker></defs>
<rect width="960" height="540" rx="24" fill="#f5f4eb"/>
<path d="M32 450H928M32 478H928" stroke="#e5e7dd" fill="none"/>
<text x="48" y="52" font-family="Microsoft YaHei,Noto Sans CJK SC,sans-serif" font-size="22" fill="#294f49" text-anchor="start">气泡与水各自运动</text>
<rect x="294" y="125" width="350" height="310" rx="8" fill="url(#water)" stroke="#368bad" stroke-width="3"/>
<path d="M294 101V435H644V101" stroke="#294f49" stroke-width="5" fill="none" stroke-linecap="round" stroke-linejoin="round"/>
<circle cx="327" cy="164" r="10" fill="#fbfff6" stroke="#368bad" stroke-width="3"/>
<circle cx="384" cy="207" r="12" fill="#fbfff6" stroke="#368bad" stroke-width="3"/>
<circle cx="441" cy="250" r="14" fill="#fbfff6" stroke="#368bad" stroke-width="3"/>
<circle cx="498" cy="293" r="16" fill="#fbfff6" stroke="#368bad" stroke-width="3"/>
<circle cx="555" cy="336" r="10" fill="#fbfff6" stroke="#368bad" stroke-width="3"/>
<circle cx="345" cy="379" r="12" fill="#fbfff6" stroke="#368bad" stroke-width="3"/>
<circle cx="402" cy="196" r="14" fill="#fbfff6" stroke="#368bad" stroke-width="3"/>
<circle cx="459" cy="239" r="16" fill="#fbfff6" stroke="#368bad" stroke-width="3"/>
<circle cx="516" cy="282" r="10" fill="#fbfff6" stroke="#368bad" stroke-width="3"/>
<circle cx="573" cy="325" r="12" fill="#fbfff6" stroke="#368bad" stroke-width="3"/>
<circle cx="363" cy="368" r="14" fill="#fbfff6" stroke="#368bad" stroke-width="3"/>
<circle cx="420" cy="185" r="16" fill="#fbfff6" stroke="#368bad" stroke-width="3"/>
<circle cx="477" cy="228" r="10" fill="#fbfff6" stroke="#368bad" stroke-width="3"/>
<circle cx="534" cy="271" r="12" fill="#fbfff6" stroke="#368bad" stroke-width="3"/>
<circle cx="591" cy="314" r="14" fill="#fbfff6" stroke="#368bad" stroke-width="3"/>
<circle cx="381" cy="357" r="16" fill="#fbfff6" stroke="#368bad" stroke-width="3"/>
<path d="M365 473V438H568V473" stroke="#294f49" stroke-width="6" fill="none" stroke-linecap="round" stroke-linejoin="round"/>
<path d="M380 419 L380 367" stroke="#368bad" stroke-width="3" fill="none" marker-end="url(#arrow)"/>
<path d="M435 419 L435 367" stroke="#368bad" stroke-width="3" fill="none" marker-end="url(#arrow)"/>
<path d="M490 419 L490 367" stroke="#368bad" stroke-width="3" fill="none" marker-end="url(#arrow)"/>
<path d="M545 419 L545 367" stroke="#368bad" stroke-width="3" fill="none" marker-end="url(#arrow)"/>
<path d="M200 354 L200 205" stroke="#368bad" stroke-width="5" fill="none" marker-end="url(#arrow)"/>
<text x="174" y="180" font-family="Microsoft YaHei,Noto Sans CJK SC,sans-serif" font-size="22" fill="#294f49" text-anchor="middle">气泡上升</text>
<path d="M749 204 L749 354" stroke="#d17453" stroke-width="4" fill="none" marker-end="url(#arrow)"/>
<text x="752" y="391" font-family="Microsoft YaHei,Noto Sans CJK SC,sans-serif" font-size="22" fill="#294f49" text-anchor="middle">液体回流</text>
</svg>